<?xml version="1.0" standalone="no"?>
<!DOCTYPE svg PUBLIC "-//W3C//DTD SVG 20010904//EN"
 "http://www.w3.org/TR/2001/REC-SVG-20010904/DTD/svg10.dtd">
<svg version="1.0" xmlns="http://www.w3.org/2000/svg"
 width="67.000000pt" height="64.000000pt" viewBox="0 0 67.000000 64.000000"
 preserveAspectRatio="xMidYMid meet">

<g transform="translate(0.000000,64.000000) scale(0.100000,-0.100000)"
fill="#4c8bff" stroke="#4c8bff">
<path d="M303 600 c-229 -46 -315 -329 -151 -497 182 -186 501 -54 501 207 0
184 -170 326 -350 290z m124 -153 c15 -8 19 -17 14 -25 -6 -11 -17 -11 -45 -4
-96 27 -174 -53 -143 -145 17 -52 55 -77 116 -75 28 0 53 -4 57 -10 20 -32
-94 -39 -144 -8 -130 79 -74 281 78 280 25 -1 55 -6 67 -13z m80 -33 c2 -5
-35 -47 -82 -94 l-85 -84 -35 34 c-27 26 -32 36 -23 47 9 11 15 10 35 -9 l24
-22 72 72 c68 68 86 79 94 56z m-7 -124 c0 -13 7 -20 20 -20 13 0 20 -7 20
-20 0 -13 -7 -20 -20 -20 -13 0 -20 -7 -20 -20 0 -13 -7 -20 -20 -20 -13 0
-20 7 -20 20 0 13 -7 20 -20 20 -13 0 -20 7 -20 20 0 13 7 20 20 20 13 0 20 7
20 20 0 13 7 20 20 20 13 0 20 -7 20 -20z"/>
</g>
</svg>
